<svg width="186" height="32" viewBox="0 0 186 32" fill="none" xmlns="http://www.w3.org/2000/svg">
<path d="M17 15L18.55 16.55C17.59 18.24 15.22 19.59 13 19.92V11H16V9H13V7.82C14.16 7.4 15 6.3 15 5C15 3.35 13.65 2 12 2C10.35 2 9 3.35 9 5C9 6.3 9.84 7.4 11 7.82V9H8V11H11V19.92C8.78 19.59 6.41 18.24 5.45 16.55L7 15L3 12V15C3 18.88 7.92 22 12 22C16.08 22 21 18.88 21 15V12L17 15ZM12 4C12.55 4 13 4.45 13 5C13 5.55 12.55 6 12 6C11.45 6 11 5.55 11 5C11 4.45 11.45 4 12 4Z" fill="white"/>
<path d="M4.34602 29V24.7168H4.84406V28.5547H6.74543V29H4.34602ZM11.0756 26.8525C11.0756 27.1826 11.0336 27.4834 10.9496 27.7549C10.8657 28.0244 10.7407 28.2568 10.5746 28.4521C10.4106 28.6455 10.2065 28.7949 9.96234 28.9004C9.7182 29.0059 9.435 29.0586 9.11273 29.0586C8.7807 29.0586 8.49066 29.0059 8.24262 28.9004C7.99652 28.7949 7.79145 28.6445 7.62738 28.4492C7.46527 28.2539 7.3432 28.0205 7.26117 27.749C7.18109 27.4775 7.14106 27.1768 7.14106 26.8467C7.14106 26.4092 7.21332 26.0254 7.35785 25.6953C7.50238 25.3652 7.72113 25.1084 8.0141 24.9248C8.30902 24.7412 8.67816 24.6494 9.12152 24.6494C9.54535 24.6494 9.9018 24.7402 10.1909 24.9219C10.4819 25.1035 10.7016 25.3594 10.85 25.6895C11.0004 26.0176 11.0756 26.4053 11.0756 26.8525ZM7.66547 26.8525C7.66547 27.2158 7.71723 27.5303 7.82074 27.7959C7.92426 28.0615 8.08246 28.2666 8.29535 28.4111C8.5102 28.5557 8.78266 28.6279 9.11273 28.6279C9.44477 28.6279 9.71625 28.5557 9.92719 28.4111C10.1401 28.2666 10.2973 28.0615 10.3989 27.7959C10.5004 27.5303 10.5512 27.2158 10.5512 26.8525C10.5512 26.2998 10.435 25.8682 10.2026 25.5576C9.97211 25.2451 9.61176 25.0889 9.12152 25.0889C8.78949 25.0889 8.51606 25.1602 8.30121 25.3027C8.08637 25.4453 7.92621 25.6484 7.82074 25.9121C7.71723 26.1738 7.66547 26.4873 7.66547 26.8525ZM13.7418 26.7559H15.2388V28.833C15.0142 28.9092 14.7828 28.9658 14.5445 29.0029C14.3082 29.04 14.0435 29.0586 13.7505 29.0586C13.3052 29.0586 12.9293 28.9697 12.6226 28.792C12.3179 28.6143 12.0865 28.3613 11.9283 28.0332C11.7701 27.7031 11.691 27.3115 11.691 26.8584C11.691 26.415 11.7779 26.0283 11.9517 25.6982C12.1275 25.3682 12.3804 25.1123 12.7105 24.9307C13.0425 24.7471 13.441 24.6553 13.9058 24.6553C14.1441 24.6553 14.3697 24.6777 14.5826 24.7227C14.7974 24.7656 14.9966 24.8271 15.1802 24.9072L14.9898 25.3408C14.8316 25.2725 14.6568 25.2139 14.4654 25.165C14.2759 25.1162 14.0796 25.0918 13.8765 25.0918C13.5269 25.0918 13.2271 25.1641 12.9771 25.3086C12.7291 25.4531 12.5386 25.6572 12.4058 25.9209C12.275 26.1846 12.2095 26.4971 12.2095 26.8584C12.2095 27.2158 12.2671 27.5273 12.3824 27.793C12.4976 28.0566 12.6773 28.2617 12.9214 28.4082C13.1656 28.5547 13.48 28.6279 13.8648 28.6279C14.0582 28.6279 14.2242 28.6172 14.3629 28.5957C14.5015 28.5723 14.6275 28.5449 14.7408 28.5137V27.2012H13.7418V26.7559ZM19.8708 26.8525C19.8708 27.1826 19.8288 27.4834 19.7448 27.7549C19.6608 28.0244 19.5358 28.2568 19.3698 28.4521C19.2057 28.6455 19.0016 28.7949 18.7575 28.9004C18.5134 29.0059 18.2302 29.0586 17.9079 29.0586C17.5759 29.0586 17.2858 29.0059 17.0378 28.9004C16.7917 28.7949 16.5866 28.6445 16.4225 28.4492C16.2604 28.2539 16.1384 28.0205 16.0563 27.749C15.9763 27.4775 15.9362 27.1768 15.9362 26.8467C15.9362 26.4092 16.0085 26.0254 16.153 25.6953C16.2975 25.3652 16.5163 25.1084 16.8093 24.9248C17.1042 24.7412 17.4733 24.6494 17.9167 24.6494C18.3405 24.6494 18.697 24.7402 18.986 24.9219C19.277 25.1035 19.4968 25.3594 19.6452 25.6895C19.7956 26.0176 19.8708 26.4053 19.8708 26.8525ZM16.4606 26.8525C16.4606 27.2158 16.5124 27.5303 16.6159 27.7959C16.7194 28.0615 16.8776 28.2666 17.0905 28.4111C17.3054 28.5557 17.5778 28.6279 17.9079 28.6279C18.2399 28.6279 18.5114 28.5557 18.7223 28.4111C18.9352 28.2666 19.0925 28.0615 19.194 27.7959C19.2956 27.5303 19.3464 27.2158 19.3464 26.8525C19.3464 26.2998 19.2302 25.8682 18.9977 25.5576C18.7673 25.2451 18.4069 25.0889 17.9167 25.0889C17.5846 25.0889 17.3112 25.1602 17.0964 25.3027C16.8815 25.4453 16.7214 25.6484 16.6159 25.9121C16.5124 26.1738 16.4606 26.4873 16.4606 26.8525Z" fill="white"/>
<path d="M42.48 16.448C42.48 17.408 42.3307 18.2453 42.032 18.96C41.7333 19.664 41.312 20.2507 40.768 20.72C40.224 21.1787 39.5733 21.5253 38.816 21.76C38.0587 21.984 37.2267 22.096 36.32 22.096C35.872 22.096 35.376 22.0747 34.832 22.032C34.2987 22 33.8133 21.9307 33.376 21.824V11.072C33.8133 10.9653 34.2987 10.896 34.832 10.864C35.376 10.8213 35.872 10.8 36.32 10.8C37.2267 10.8 38.0587 10.9173 38.816 11.152C39.5733 11.376 40.224 11.7227 40.768 12.192C41.312 12.6507 41.7333 13.2373 42.032 13.952C42.3307 14.656 42.48 15.488 42.48 16.448ZM36.448 20.736C37.92 20.736 39.0187 20.3627 39.744 19.616C40.4693 18.8587 40.832 17.8027 40.832 16.448C40.832 15.0933 40.4693 14.0427 39.744 13.296C39.0187 12.5387 37.92 12.16 36.448 12.16C36.0107 12.16 35.6693 12.1653 35.424 12.176C35.1893 12.1867 35.024 12.1973 34.928 12.208V20.688C35.024 20.6987 35.1893 20.7093 35.424 20.72C35.6693 20.7307 36.0107 20.736 36.448 20.736ZM44.7823 10.912H46.3343V22H44.7823V10.912ZM56.4871 10.912V12.256H52.9991V22H51.4471V12.256H47.9591V10.912H56.4871ZM70.0371 10.912C69.7065 11.2747 69.3331 11.68 68.9171 12.128C68.5011 12.5653 68.0638 13.0187 67.6051 13.488C67.1571 13.9467 66.7091 14.4 66.2611 14.848C65.8131 15.296 65.3918 15.712 64.9971 16.096C65.4558 16.416 65.9411 16.8107 66.4531 17.28C66.9651 17.7493 67.4665 18.2507 67.9571 18.784C68.4478 19.3173 68.9065 19.8613 69.3331 20.416C69.7705 20.9707 70.1331 21.4987 70.4211 22H68.5971C68.2771 21.4987 67.9091 20.9973 67.4931 20.496C67.0771 19.984 66.6345 19.4987 66.1651 19.04C65.7065 18.5707 65.2371 18.1387 64.7571 17.744C64.2878 17.3493 63.8291 17.0133 63.3811 16.736V22H61.8291V10.912H63.3811V15.808C63.7545 15.456 64.1651 15.0613 64.6131 14.624C65.0611 14.176 65.5038 13.728 65.9411 13.28C66.3785 12.832 66.7891 12.4053 67.1731 12C67.5678 11.584 67.8985 11.2213 68.1651 10.912H70.0371ZM70.8811 16.448C70.8811 15.4987 71.0198 14.6613 71.2971 13.936C71.5851 13.2107 71.9691 12.608 72.4491 12.128C72.9398 11.6373 73.5051 11.2693 74.1451 11.024C74.7958 10.7787 75.4838 10.656 76.2091 10.656C76.9238 10.656 77.5958 10.7787 78.2251 11.024C78.8651 11.2693 79.4251 11.6373 79.9051 12.128C80.3851 12.608 80.7638 13.2107 81.0411 13.936C81.3291 14.6613 81.4731 15.4987 81.4731 16.448C81.4731 17.3973 81.3291 18.2347 81.0411 18.96C80.7638 19.6853 80.3851 20.2933 79.9051 20.784C79.4251 21.264 78.8651 21.6267 78.2251 21.872C77.5958 22.1173 76.9238 22.24 76.2091 22.24C75.4838 22.24 74.7958 22.1173 74.1451 21.872C73.5051 21.6267 72.9398 21.264 72.4491 20.784C71.9691 20.2933 71.5851 19.6853 71.2971 18.96C71.0198 18.2347 70.8811 17.3973 70.8811 16.448ZM72.5131 16.448C72.5131 17.12 72.5985 17.7333 72.7691 18.288C72.9398 18.832 73.1798 19.296 73.4891 19.68C73.8091 20.064 74.1931 20.3627 74.6411 20.576C75.0998 20.7787 75.6118 20.88 76.1771 20.88C76.7425 20.88 77.2491 20.7787 77.6971 20.576C78.1451 20.3627 78.5238 20.064 78.8331 19.68C79.1531 19.296 79.3985 18.832 79.5691 18.288C79.7398 17.7333 79.8251 17.12 79.8251 16.448C79.8251 15.776 79.7398 15.168 79.5691 14.624C79.3985 14.0693 79.1531 13.6 78.8331 13.216C78.5238 12.832 78.1451 12.5387 77.6971 12.336C77.2491 12.1227 76.7425 12.016 76.1771 12.016C75.6118 12.016 75.0998 12.1227 74.6411 12.336C74.1931 12.5387 73.8091 12.832 73.4891 13.216C73.1798 13.6 72.9398 14.0693 72.7691 14.624C72.5985 15.168 72.5131 15.776 72.5131 16.448ZM88.7583 20.464C88.6516 20.208 88.5076 19.8827 88.3263 19.488C88.1556 19.0933 87.9689 18.6667 87.7663 18.208C87.5636 17.7493 87.3449 17.28 87.1102 16.8C86.8863 16.3093 86.6729 15.8507 86.4703 15.424C86.2676 14.9867 86.0756 14.5973 85.8943 14.256C85.7236 13.9147 85.5849 13.6533 85.4783 13.472C85.3609 14.7307 85.2649 16.096 85.1903 17.568C85.1156 19.0293 85.0516 20.5067 84.9983 22H83.4783C83.5209 21.04 83.5689 20.0747 83.6223 19.104C83.6756 18.1227 83.7343 17.1627 83.7983 16.224C83.8729 15.2747 83.9476 14.352 84.0223 13.456C84.1076 12.56 84.1983 11.712 84.2943 10.912H85.6543C85.9423 11.3813 86.2516 11.936 86.5823 12.576C86.9129 13.216 87.2436 13.888 87.5743 14.592C87.9049 15.2853 88.2249 15.984 88.5343 16.688C88.8436 17.3813 89.1263 18.016 89.3823 18.592C89.6383 18.016 89.9209 17.3813 90.2303 16.688C90.5396 15.984 90.8596 15.2853 91.1903 14.592C91.5209 13.888 91.8516 13.216 92.1823 12.576C92.5129 11.936 92.8223 11.3813 93.1103 10.912H94.4703C94.8329 14.4853 95.1049 18.1813 95.2863 22H93.7663C93.7129 20.5067 93.6489 19.0293 93.5743 17.568C93.4996 16.096 93.4036 14.7307 93.2863 13.472C93.1796 13.6533 93.0356 13.9147 92.8543 14.256C92.6836 14.5973 92.4969 14.9867 92.2943 15.424C92.0916 15.8507 91.8729 16.3093 91.6383 16.8C91.4143 17.28 91.2009 17.7493 90.9983 18.208C90.7956 18.6667 90.6036 19.0933 90.4223 19.488C90.2516 19.8827 90.1129 20.208 90.0063 20.464H88.7583ZM102.696 20.464C102.589 20.208 102.445 19.8827 102.264 19.488C102.093 19.0933 101.906 18.6667 101.704 18.208C101.501 17.7493 101.282 17.28 101.048 16.8C100.824 16.3093 100.61 15.8507 100.408 15.424C100.205 14.9867 100.013 14.5973 99.8318 14.256C99.6611 13.9147 99.5224 13.6533 99.4158 13.472C99.2984 14.7307 99.2024 16.096 99.1278 17.568C99.0531 19.0293 98.9891 20.5067 98.9358 22H97.4158C97.4584 21.04 97.5064 20.0747 97.5598 19.104C97.6131 18.1227 97.6718 17.1627 97.7358 16.224C97.8104 15.2747 97.8851 14.352 97.9598 13.456C98.0451 12.56 98.1358 11.712 98.2318 10.912H99.5918C99.8798 11.3813 100.189 11.936 100.52 12.576C100.85 13.216 101.181 13.888 101.512 14.592C101.842 15.2853 102.162 15.984 102.472 16.688C102.781 17.3813 103.064 18.016 103.32 18.592C103.576 18.016 103.858 17.3813 104.168 16.688C104.477 15.984 104.797 15.2853 105.128 14.592C105.458 13.888 105.789 13.216 106.12 12.576C106.45 11.936 106.76 11.3813 107.048 10.912H108.408C108.77 14.4853 109.042 18.1813 109.224 22H107.704C107.65 20.5067 107.586 19.0293 107.512 17.568C107.437 16.096 107.341 14.7307 107.224 13.472C107.117 13.6533 106.973 13.9147 106.792 14.256C106.621 14.5973 106.434 14.9867 106.232 15.424C106.029 15.8507 105.81 16.3093 105.576 16.8C105.352 17.28 105.138 17.7493 104.936 18.208C104.733 18.6667 104.541 19.0933 104.36 19.488C104.189 19.8827 104.05 20.208 103.944 20.464H102.696ZM115.785 22.24C115.06 22.24 114.431 22.128 113.897 21.904C113.364 21.68 112.927 21.376 112.585 20.992C112.244 20.5973 111.988 20.1333 111.817 19.6C111.657 19.0667 111.577 18.4907 111.577 17.872V10.912H113.129V17.696C113.129 18.8053 113.375 19.6107 113.865 20.112C114.356 20.6133 114.996 20.864 115.785 20.864C116.18 20.864 116.537 20.8053 116.857 20.688C117.188 20.56 117.471 20.368 117.705 20.112C117.94 19.856 118.121 19.5307 118.249 19.136C118.377 18.7307 118.441 18.2507 118.441 17.696V10.912H119.993V17.872C119.993 18.4907 119.908 19.0667 119.737 19.6C119.577 20.1333 119.321 20.5973 118.969 20.992C118.628 21.376 118.191 21.68 117.657 21.904C117.135 22.128 116.511 22.24 115.785 22.24ZM130.273 22C130.038 21.6053 129.766 21.1627 129.457 20.672C129.158 20.1813 128.833 19.6747 128.481 19.152C128.129 18.6187 127.761 18.08 127.377 17.536C127.004 16.992 126.63 16.4693 126.257 15.968C125.884 15.456 125.521 14.976 125.169 14.528C124.817 14.08 124.492 13.6853 124.193 13.344V22H122.673V10.912H123.905C124.406 11.4453 124.94 12.0693 125.505 12.784C126.081 13.488 126.646 14.2187 127.201 14.976C127.766 15.7227 128.294 16.4587 128.785 17.184C129.286 17.9093 129.708 18.5547 130.049 19.12V10.912H131.569V22H130.273ZM134.314 22V10.912H141.082V12.24H135.866V15.536H140.506V16.832H135.866V20.672H141.482V22H134.314ZM151.054 22C150.819 21.6053 150.547 21.1627 150.238 20.672C149.939 20.1813 149.614 19.6747 149.262 19.152C148.91 18.6187 148.542 18.08 148.158 17.536C147.785 16.992 147.411 16.4693 147.038 15.968C146.665 15.456 146.302 14.976 145.95 14.528C145.598 14.08 145.273 13.6853 144.974 13.344V22H143.454V10.912H144.686C145.187 11.4453 145.721 12.0693 146.286 12.784C146.862 13.488 147.427 14.2187 147.982 14.976C148.547 15.7227 149.075 16.4587 149.566 17.184C150.067 17.9093 150.489 18.5547 150.83 19.12V10.912H152.35V22H151.054ZM162.503 22C162.321 21.52 162.151 21.0507 161.991 20.592C161.831 20.1227 161.665 19.648 161.495 19.168H156.471L155.463 22H153.847C154.273 20.8267 154.673 19.744 155.047 18.752C155.42 17.7493 155.783 16.8 156.135 15.904C156.497 15.008 156.855 14.1547 157.207 13.344C157.559 12.5227 157.927 11.712 158.311 10.912H159.735C160.119 11.712 160.487 12.5227 160.839 13.344C161.191 14.1547 161.543 15.008 161.895 15.904C162.257 16.8 162.625 17.7493 162.999 18.752C163.372 19.744 163.772 20.8267 164.199 22H162.503ZM161.047 17.888C160.705 16.96 160.364 16.064 160.023 15.2C159.692 14.3253 159.345 13.488 158.983 12.688C158.609 13.488 158.252 14.3253 157.911 15.2C157.58 16.064 157.249 16.96 156.919 17.888H161.047ZM173.68 10.912C173.274 12.0853 172.885 13.1733 172.512 14.176C172.149 15.168 171.792 16.112 171.44 17.008C171.088 17.904 170.736 18.7627 170.384 19.584C170.042 20.3947 169.69 21.2 169.328 22H167.872C167.509 21.2 167.152 20.3947 166.8 19.584C166.458 18.7627 166.106 17.904 165.744 17.008C165.392 16.112 165.029 15.168 164.656 14.176C164.282 13.1733 163.898 12.0853 163.504 10.912H165.216C165.792 12.5973 166.357 14.2187 166.912 15.776C167.466 17.3333 168.037 18.7947 168.624 20.16C169.21 18.8053 169.781 17.3493 170.336 15.792C170.89 14.224 171.45 12.5973 172.016 10.912H173.68ZM182.82 22C182.585 21.6053 182.313 21.1627 182.004 20.672C181.705 20.1813 181.38 19.6747 181.028 19.152C180.676 18.6187 180.308 18.08 179.924 17.536C179.55 16.992 179.177 16.4693 178.804 15.968C178.43 15.456 178.068 14.976 177.716 14.528C177.364 14.08 177.038 13.6853 176.74 13.344V22H175.22V10.912H176.452C176.953 11.4453 177.486 12.0693 178.052 12.784C178.628 13.488 179.193 14.2187 179.748 14.976C180.313 15.7227 180.841 16.4587 181.332 17.184C181.833 17.9093 182.254 18.5547 182.596 19.12V10.912H184.116V22H182.82Z" fill="white"/>
</svg>
