<svg width="206" height="32" viewBox="0 0 206 32" fill="none" xmlns="http://www.w3.org/2000/svg">
<path d="M25.3333 4H6.66667C5.19391 4 4 5.19391 4 6.66667V25.3333C4 26.8061 5.19391 28 6.66667 28H25.3333C26.8061 28 28 26.8061 28 25.3333V6.66667C28 5.19391 26.8061 4 25.3333 4Z" stroke="white" stroke-width="2" stroke-linecap="round" stroke-linejoin="round"/>
<path d="M11.3333 13.3334C12.4378 13.3334 13.3333 12.4379 13.3333 11.3334C13.3333 10.2288 12.4378 9.33337 11.3333 9.33337C10.2287 9.33337 9.33325 10.2288 9.33325 11.3334C9.33325 12.4379 10.2287 13.3334 11.3333 13.3334Z" stroke="white" stroke-width="2" stroke-linecap="round" stroke-linejoin="round"/>
<path d="M28.0001 20L21.3334 13.3334L6.66675 28" stroke="white" stroke-width="2" stroke-linecap="round" stroke-linejoin="round"/>
<path d="M53.1 16.06C53.1 17.26 52.9133 18.3067 52.54 19.2C52.1667 20.08 51.64 20.8133 50.96 21.4C50.28 21.9733 49.4667 22.4067 48.52 22.7C47.5733 22.98 46.5333 23.12 45.4 23.12C44.84 23.12 44.22 23.0933 43.54 23.04C42.8733 23 42.2667 22.9133 41.72 22.78V9.34C42.2667 9.20667 42.8733 9.12 43.54 9.08C44.22 9.02667 44.84 9 45.4 9C46.5333 9 47.5733 9.14667 48.52 9.44C49.4667 9.72 50.28 10.1533 50.96 10.74C51.64 11.3133 52.1667 12.0467 52.54 12.94C52.9133 13.82 53.1 14.86 53.1 16.06ZM45.56 21.42C47.4 21.42 48.7733 20.9533 49.68 20.02C50.5867 19.0733 51.04 17.7533 51.04 16.06C51.04 14.3667 50.5867 13.0533 49.68 12.12C48.7733 11.1733 47.4 10.7 45.56 10.7C45.0133 10.7 44.5867 10.7067 44.28 10.72C43.9867 10.7333 43.78 10.7467 43.66 10.76V21.36C43.78 21.3733 43.9867 21.3867 44.28 21.4C44.5867 21.4133 45.0133 21.42 45.56 21.42ZM57.7178 23H55.8578V12.6H57.7178V23ZM56.7778 10.72C56.4445 10.72 56.1578 10.6133 55.9178 10.4C55.6911 10.1733 55.5778 9.87333 55.5778 9.5C55.5778 9.12667 55.6911 8.83333 55.9178 8.62C56.1578 8.39333 56.4445 8.28 56.7778 8.28C57.1111 8.28 57.3911 8.39333 57.6178 8.62C57.8578 8.83333 57.9778 9.12667 57.9778 9.5C57.9778 9.87333 57.8578 10.1733 57.6178 10.4C57.3911 10.6133 57.1111 10.72 56.7778 10.72ZM62.6564 12.6H66.5964V14.16H62.6564V18.96C62.6564 19.48 62.6964 19.9133 62.7764 20.26C62.8564 20.5933 62.9764 20.86 63.1364 21.06C63.2964 21.2467 63.4964 21.38 63.7364 21.46C63.9764 21.54 64.2564 21.58 64.5764 21.58C65.1364 21.58 65.5831 21.52 65.9164 21.4C66.2631 21.2667 66.5031 21.1733 66.6364 21.12L66.9964 22.66C66.8097 22.7533 66.4831 22.8667 66.0164 23C65.5497 23.1467 65.0164 23.22 64.4164 23.22C63.7097 23.22 63.1231 23.1333 62.6564 22.96C62.2031 22.7733 61.8364 22.5 61.5564 22.14C61.2764 21.78 61.0764 21.34 60.9564 20.82C60.8497 20.2867 60.7964 19.6733 60.7964 18.98V9.7L62.6564 9.38V12.6ZM77.3522 17.28C77.7522 17.5867 78.1722 17.9667 78.6122 18.42C79.0655 18.8733 79.5055 19.3667 79.9322 19.9C80.3722 20.42 80.7855 20.9533 81.1722 21.5C81.5589 22.0333 81.8855 22.5333 82.1522 23H79.9722C79.6922 22.5333 79.3655 22.06 78.9922 21.58C78.6322 21.0867 78.2522 20.62 77.8522 20.18C77.4522 19.7267 77.0455 19.3133 76.6322 18.94C76.2189 18.5667 75.8255 18.2533 75.4522 18V23H73.5922V7.8L75.4522 7.48V16.96C75.7722 16.64 76.1255 16.2867 76.5122 15.9C76.8989 15.5133 77.2789 15.12 77.6522 14.72C78.0255 14.32 78.3789 13.94 78.7122 13.58C79.0455 13.2067 79.3322 12.88 79.5722 12.6H81.7522C81.4455 12.9333 81.1122 13.3 80.7522 13.7C80.3922 14.1 80.0189 14.5067 79.6322 14.92C79.2455 15.32 78.8522 15.7267 78.4522 16.14C78.0655 16.54 77.6989 16.92 77.3522 17.28ZM92.6355 17.8C92.6355 18.6267 92.5155 19.3733 92.2755 20.04C92.0355 20.7067 91.6955 21.28 91.2555 21.76C90.8288 22.24 90.3155 22.6133 89.7155 22.88C89.1155 23.1333 88.4621 23.26 87.7555 23.26C87.0488 23.26 86.3955 23.1333 85.7955 22.88C85.1955 22.6133 84.6755 22.24 84.2355 21.76C83.8088 21.28 83.4755 20.7067 83.2355 20.04C82.9955 19.3733 82.8755 18.6267 82.8755 17.8C82.8755 16.9867 82.9955 16.2467 83.2355 15.58C83.4755 14.9 83.8088 14.32 84.2355 13.84C84.6755 13.36 85.1955 12.9933 85.7955 12.74C86.3955 12.4733 87.0488 12.34 87.7555 12.34C88.4621 12.34 89.1155 12.4733 89.7155 12.74C90.3155 12.9933 90.8288 13.36 91.2555 13.84C91.6955 14.32 92.0355 14.9 92.2755 15.58C92.5155 16.2467 92.6355 16.9867 92.6355 17.8ZM90.6955 17.8C90.6955 16.6267 90.4288 15.7 89.8955 15.02C89.3755 14.3267 88.6621 13.98 87.7555 13.98C86.8488 13.98 86.1288 14.3267 85.5955 15.02C85.0755 15.7 84.8155 16.6267 84.8155 17.8C84.8155 18.9733 85.0755 19.9067 85.5955 20.6C86.1288 21.28 86.8488 21.62 87.7555 21.62C88.6621 21.62 89.3755 21.28 89.8955 20.6C90.4288 19.9067 90.6955 18.9733 90.6955 17.8ZM95.2523 12.9C95.679 12.7933 96.239 12.68 96.9323 12.56C97.639 12.44 98.4523 12.38 99.3723 12.38C100.039 12.38 100.599 12.4733 101.052 12.66C101.506 12.8333 101.886 13.0933 102.192 13.44C102.286 13.3733 102.432 13.28 102.632 13.16C102.832 13.04 103.079 12.9267 103.372 12.82C103.666 12.7 103.992 12.6 104.352 12.52C104.712 12.4267 105.099 12.38 105.512 12.38C106.312 12.38 106.966 12.5 107.472 12.74C107.979 12.9667 108.372 13.2933 108.652 13.72C108.946 14.1467 109.139 14.6533 109.232 15.24C109.339 15.8267 109.392 16.4667 109.392 17.16V23H107.532V17.56C107.532 16.9467 107.499 16.42 107.432 15.98C107.379 15.54 107.266 15.1733 107.092 14.88C106.932 14.5867 106.706 14.3733 106.412 14.24C106.132 14.0933 105.766 14.02 105.312 14.02C104.686 14.02 104.166 14.1067 103.752 14.28C103.352 14.44 103.079 14.5867 102.932 14.72C103.039 15.0667 103.119 15.4467 103.172 15.86C103.226 16.2733 103.252 16.7067 103.252 17.16V23H101.392V17.56C101.392 16.9467 101.359 16.42 101.292 15.98C101.226 15.54 101.106 15.1733 100.932 14.88C100.772 14.5867 100.546 14.3733 100.252 14.24C99.9723 14.0933 99.6123 14.02 99.1723 14.02C98.9857 14.02 98.7857 14.0267 98.5723 14.04C98.359 14.0533 98.1523 14.0733 97.9523 14.1C97.7657 14.1133 97.5923 14.1333 97.4323 14.16C97.2723 14.1867 97.1657 14.2067 97.1123 14.22V23H95.2523V12.9ZM112.479 12.9C112.906 12.7933 113.466 12.68 114.159 12.56C114.866 12.44 115.679 12.38 116.599 12.38C117.266 12.38 117.826 12.4733 118.279 12.66C118.732 12.8333 119.112 13.0933 119.419 13.44C119.512 13.3733 119.659 13.28 119.859 13.16C120.059 13.04 120.306 12.9267 120.599 12.82C120.892 12.7 121.219 12.6 121.579 12.52C121.939 12.4267 122.326 12.38 122.739 12.38C123.539 12.38 124.192 12.5 124.699 12.74C125.206 12.9667 125.599 13.2933 125.879 13.72C126.172 14.1467 126.366 14.6533 126.459 15.24C126.566 15.8267 126.619 16.4667 126.619 17.16V23H124.759V17.56C124.759 16.9467 124.726 16.42 124.659 15.98C124.606 15.54 124.492 15.1733 124.319 14.88C124.159 14.5867 123.932 14.3733 123.639 14.24C123.359 14.0933 122.992 14.02 122.539 14.02C121.912 14.02 121.392 14.1067 120.979 14.28C120.579 14.44 120.306 14.5867 120.159 14.72C120.266 15.0667 120.346 15.4467 120.399 15.86C120.452 16.2733 120.479 16.7067 120.479 17.16V23H118.619V17.56C118.619 16.9467 118.586 16.42 118.519 15.98C118.452 15.54 118.332 15.1733 118.159 14.88C117.999 14.5867 117.772 14.3733 117.479 14.24C117.199 14.0933 116.839 14.02 116.399 14.02C116.212 14.02 116.012 14.0267 115.799 14.04C115.586 14.0533 115.379 14.0733 115.179 14.1C114.992 14.1133 114.819 14.1333 114.659 14.16C114.499 14.1867 114.392 14.2067 114.339 14.22V23H112.479V12.9ZM137.985 22.7C137.559 22.8067 136.992 22.92 136.285 23.04C135.592 23.16 134.785 23.22 133.865 23.22C133.065 23.22 132.392 23.1067 131.845 22.88C131.299 22.64 130.859 22.3067 130.525 21.88C130.192 21.4533 129.952 20.9533 129.805 20.38C129.659 19.7933 129.585 19.1467 129.585 18.44V12.6H131.445V18.04C131.445 19.3067 131.645 20.2133 132.045 20.76C132.445 21.3067 133.119 21.58 134.065 21.58C134.265 21.58 134.472 21.5733 134.685 21.56C134.899 21.5467 135.099 21.5333 135.285 21.52C135.472 21.4933 135.639 21.4733 135.785 21.46C135.945 21.4333 136.059 21.4067 136.125 21.38V12.6H137.985V22.7ZM141.19 12.9C141.617 12.7933 142.183 12.68 142.89 12.56C143.597 12.44 144.41 12.38 145.33 12.38C146.157 12.38 146.843 12.5 147.39 12.74C147.937 12.9667 148.37 13.2933 148.69 13.72C149.023 14.1333 149.257 14.6333 149.39 15.22C149.523 15.8067 149.59 16.4533 149.59 17.16V23H147.73V17.56C147.73 16.92 147.683 16.3733 147.59 15.92C147.51 15.4667 147.37 15.1 147.17 14.82C146.97 14.54 146.703 14.34 146.37 14.22C146.037 14.0867 145.623 14.02 145.13 14.02C144.93 14.02 144.723 14.0267 144.51 14.04C144.297 14.0533 144.09 14.0733 143.89 14.1C143.703 14.1133 143.53 14.1333 143.37 14.16C143.223 14.1867 143.117 14.2067 143.05 14.22V23H141.19V12.9ZM152.094 17.82C152.094 16.9 152.228 16.1 152.494 15.42C152.761 14.7267 153.114 14.1533 153.554 13.7C153.994 13.2467 154.501 12.9067 155.074 12.68C155.648 12.4533 156.234 12.34 156.834 12.34C158.234 12.34 159.308 12.78 160.054 13.66C160.801 14.5267 161.174 15.8533 161.174 17.64C161.174 17.72 161.174 17.8267 161.174 17.96C161.174 18.08 161.168 18.1933 161.154 18.3H154.034C154.114 19.38 154.428 20.2 154.974 20.76C155.521 21.32 156.374 21.6 157.534 21.6C158.188 21.6 158.734 21.5467 159.174 21.44C159.628 21.32 159.968 21.2067 160.194 21.1L160.454 22.66C160.228 22.78 159.828 22.9067 159.254 23.04C158.694 23.1733 158.054 23.24 157.334 23.24C156.428 23.24 155.641 23.1067 154.974 22.84C154.321 22.56 153.781 22.18 153.354 21.7C152.928 21.22 152.608 20.6533 152.394 20C152.194 19.3333 152.094 18.6067 152.094 17.82ZM159.234 16.8C159.248 15.96 159.034 15.2733 158.594 14.74C158.168 14.1933 157.574 13.92 156.814 13.92C156.388 13.92 156.008 14.0067 155.674 14.18C155.354 14.34 155.081 14.5533 154.854 14.82C154.628 15.0867 154.448 15.3933 154.314 15.74C154.194 16.0867 154.114 16.44 154.074 16.8H159.234ZM163.846 12.9C164.273 12.7933 164.839 12.68 165.546 12.56C166.253 12.44 167.066 12.38 167.986 12.38C168.813 12.38 169.499 12.5 170.046 12.74C170.593 12.9667 171.026 13.2933 171.346 13.72C171.679 14.1333 171.913 14.6333 172.046 15.22C172.179 15.8067 172.246 16.4533 172.246 17.16V23H170.386V17.56C170.386 16.92 170.339 16.3733 170.246 15.92C170.166 15.4667 170.026 15.1 169.826 14.82C169.626 14.54 169.359 14.34 169.026 14.22C168.693 14.0867 168.279 14.02 167.786 14.02C167.586 14.02 167.379 14.0267 167.166 14.04C166.953 14.0533 166.746 14.0733 166.546 14.1C166.359 14.1133 166.186 14.1333 166.026 14.16C165.879 14.1867 165.773 14.2067 165.706 14.22V23H163.846V12.9ZM178.85 21.66C179.29 21.66 179.677 21.6533 180.01 21.64C180.357 21.6133 180.644 21.5733 180.87 21.52V18.42C180.737 18.3533 180.517 18.3 180.21 18.26C179.917 18.2067 179.557 18.18 179.13 18.18C178.85 18.18 178.55 18.2 178.23 18.24C177.924 18.28 177.637 18.3667 177.37 18.5C177.117 18.62 176.904 18.7933 176.73 19.02C176.557 19.2333 176.47 19.52 176.47 19.88C176.47 20.5467 176.684 21.0133 177.11 21.28C177.537 21.5333 178.117 21.66 178.85 21.66ZM178.69 12.34C179.437 12.34 180.064 12.44 180.57 12.64C181.09 12.8267 181.504 13.1 181.81 13.46C182.13 13.8067 182.357 14.2267 182.49 14.72C182.624 15.2 182.69 15.7333 182.69 16.32V22.82C182.53 22.8467 182.304 22.8867 182.01 22.94C181.73 22.98 181.41 23.02 181.05 23.06C180.69 23.1 180.297 23.1333 179.87 23.16C179.457 23.2 179.044 23.22 178.63 23.22C178.044 23.22 177.504 23.16 177.01 23.04C176.517 22.92 176.09 22.7333 175.73 22.48C175.37 22.2133 175.09 21.8667 174.89 21.44C174.69 21.0133 174.59 20.5 174.59 19.9C174.59 19.3267 174.704 18.8333 174.93 18.42C175.17 18.0067 175.49 17.6733 175.89 17.42C176.29 17.1667 176.757 16.98 177.29 16.86C177.824 16.74 178.384 16.68 178.97 16.68C179.157 16.68 179.35 16.6933 179.55 16.72C179.75 16.7333 179.937 16.76 180.11 16.8C180.297 16.8267 180.457 16.8533 180.59 16.88C180.724 16.9067 180.817 16.9267 180.87 16.94V16.42C180.87 16.1133 180.837 15.8133 180.77 15.52C180.704 15.2133 180.584 14.9467 180.41 14.72C180.237 14.48 179.997 14.2933 179.69 14.16C179.397 14.0133 179.01 13.94 178.53 13.94C177.917 13.94 177.377 13.9867 176.91 14.08C176.457 14.16 176.117 14.2467 175.89 14.34L175.67 12.8C175.91 12.6933 176.31 12.5933 176.87 12.5C177.43 12.3933 178.037 12.34 178.69 12.34ZM193.607 12.6C193.087 14.5467 192.473 16.4133 191.767 18.2C191.073 19.9867 190.4 21.5867 189.747 23H188.067C187.413 21.5867 186.733 19.9867 186.027 18.2C185.333 16.4133 184.727 14.5467 184.207 12.6H186.207C186.367 13.2533 186.553 13.9533 186.767 14.7C186.993 15.4333 187.227 16.1667 187.467 16.9C187.72 17.62 187.973 18.32 188.227 19C188.48 19.68 188.72 20.2867 188.947 20.82C189.173 20.2867 189.413 19.68 189.667 19C189.92 18.32 190.167 17.62 190.407 16.9C190.66 16.1667 190.893 15.4333 191.107 14.7C191.333 13.9533 191.527 13.2533 191.687 12.6H193.607ZM195.526 12.9C195.952 12.7933 196.519 12.68 197.226 12.56C197.932 12.44 198.746 12.38 199.666 12.38C200.492 12.38 201.179 12.5 201.726 12.74C202.272 12.9667 202.706 13.2933 203.026 13.72C203.359 14.1333 203.592 14.6333 203.726 15.22C203.859 15.8067 203.926 16.4533 203.926 17.16V23H202.066V17.56C202.066 16.92 202.019 16.3733 201.926 15.92C201.846 15.4667 201.706 15.1 201.506 14.82C201.306 14.54 201.039 14.34 200.706 14.22C200.372 14.0867 199.959 14.02 199.466 14.02C199.266 14.02 199.059 14.0267 198.846 14.04C198.632 14.0533 198.426 14.0733 198.226 14.1C198.039 14.1133 197.866 14.1333 197.706 14.16C197.559 14.1867 197.452 14.2067 197.386 14.22V23H195.526V12.9Z" fill="white"/>
</svg>
